<mxfile host="app.diagrams.net" modified="2022-12-04T12:00:25.212Z" agent="5.0 (Macintosh; Intel Mac OS X 10_15_7) AppleWebKit/537.36 (KHTML, like Gecko) Chrome/107.0.0.0 Safari/537.36" version="20.6.0" etag="9UyVbI74zsOw7fXKq7_Z" type="github">
  <diagram id="7y8Zg5flrb1svTR9pApT" name="第 1 页">
    <mxGraphModel dx="1845" dy="659" grid="1" gridSize="10" guides="1" tooltips="1" connect="1" arrows="1" fold="1" page="1" pageScale="1" pageWidth="827" pageHeight="1169" math="0" shadow="0">
      <root>
        <mxCell id="0" />
        <mxCell id="1" parent="0" />
        <mxCell id="QFlxC7p19yBwKYBSE6nW-1" value="&lt;font style=&quot;font-size: 14px;&quot;&gt;ZooKeeper集群&lt;br&gt;&lt;br&gt;/servers/server1 hadoop101 80 nodes&lt;br&gt;&lt;strike&gt;/server2 hadoop102 90 nodes&lt;/strike&gt;&lt;br&gt;/server3 hadoop103 95 nodes&lt;/font&gt;" style="html=1;strokeColor=#006658;fontColor=#5C5C5C;fillColor=#21C0A5;" vertex="1" parent="1">
          <mxGeometry x="-70" y="770" width="240" height="150" as="geometry" />
        </mxCell>
        <mxCell id="QFlxC7p19yBwKYBSE6nW-2" value="服务器1" style="html=1;strokeColor=#006658;fontSize=14;fontColor=#5C5C5C;fillColor=#7EA6E0;" vertex="1" parent="1">
          <mxGeometry x="320" y="630" width="120" height="130" as="geometry" />
        </mxCell>
        <mxCell id="QFlxC7p19yBwKYBSE6nW-3" value="服务器2" style="html=1;strokeColor=#006658;fontSize=14;fontColor=#5C5C5C;fillColor=#7EA6E0;" vertex="1" parent="1">
          <mxGeometry x="560" y="630" width="120" height="130" as="geometry" />
        </mxCell>
        <mxCell id="QFlxC7p19yBwKYBSE6nW-4" value="服务器3" style="html=1;strokeColor=#006658;fontSize=14;fontColor=#5C5C5C;fillColor=#7EA6E0;" vertex="1" parent="1">
          <mxGeometry x="780" y="630" width="120" height="130" as="geometry" />
        </mxCell>
        <mxCell id="QFlxC7p19yBwKYBSE6nW-6" value="业务功能" style="html=1;strokeColor=#006658;fontSize=14;fontColor=#5C5C5C;fillColor=#D5E8D4;" vertex="1" parent="1">
          <mxGeometry x="350" y="715" width="60" height="45" as="geometry" />
        </mxCell>
        <mxCell id="QFlxC7p19yBwKYBSE6nW-8" value="业务功能" style="html=1;strokeColor=#006658;fontSize=14;fontColor=#5C5C5C;fillColor=#D5E8D4;" vertex="1" parent="1">
          <mxGeometry x="590" y="715" width="60" height="45" as="geometry" />
        </mxCell>
        <mxCell id="QFlxC7p19yBwKYBSE6nW-9" value="业务功能" style="html=1;strokeColor=#006658;fontSize=14;fontColor=#5C5C5C;fillColor=#D5E8D4;" vertex="1" parent="1">
          <mxGeometry x="810" y="715" width="60" height="45" as="geometry" />
        </mxCell>
        <mxCell id="QFlxC7p19yBwKYBSE6nW-10" value="&lt;b&gt;客户端1&lt;br&gt;5 process() {&lt;br&gt;重新再去获取服务器&lt;br&gt;列表，并注册监听&lt;br&gt;}&lt;br&gt;&lt;/b&gt;" style="ellipse;whiteSpace=wrap;html=1;strokeColor=#d79b00;fontSize=14;fillColor=#ffe6cc;" vertex="1" parent="1">
          <mxGeometry x="230" y="990" width="260" height="110" as="geometry" />
        </mxCell>
        <mxCell id="QFlxC7p19yBwKYBSE6nW-11" value="&lt;b&gt;客户端2&lt;br&gt;&lt;/b&gt;" style="ellipse;whiteSpace=wrap;html=1;strokeColor=#d79b00;fontSize=14;fillColor=#ffe6cc;" vertex="1" parent="1">
          <mxGeometry x="540" y="1005" width="150" height="80" as="geometry" />
        </mxCell>
        <mxCell id="QFlxC7p19yBwKYBSE6nW-12" value="&lt;b&gt;客户端2&lt;br&gt;&lt;/b&gt;" style="ellipse;whiteSpace=wrap;html=1;strokeColor=#d79b00;fontSize=14;fillColor=#ffe6cc;" vertex="1" parent="1">
          <mxGeometry x="740" y="1005" width="150" height="80" as="geometry" />
        </mxCell>
        <mxCell id="QFlxC7p19yBwKYBSE6nW-20" value="" style="endArrow=classic;html=1;rounded=0;strokeColor=#006658;fontSize=14;fontColor=#5C5C5C;fillColor=#21C0A5;exitX=0.5;exitY=1;exitDx=0;exitDy=0;entryX=1;entryY=0.5;entryDx=0;entryDy=0;" edge="1" parent="1" source="QFlxC7p19yBwKYBSE6nW-6" target="QFlxC7p19yBwKYBSE6nW-1">
          <mxGeometry width="50" height="50" relative="1" as="geometry">
            <mxPoint x="380" y="840" as="sourcePoint" />
            <mxPoint x="430" y="790" as="targetPoint" />
          </mxGeometry>
        </mxCell>
        <mxCell id="QFlxC7p19yBwKYBSE6nW-21" value="" style="endArrow=classic;html=1;rounded=0;strokeColor=#006658;fontSize=14;fontColor=#5C5C5C;fillColor=#21C0A5;exitX=0.5;exitY=1;exitDx=0;exitDy=0;" edge="1" parent="1" source="QFlxC7p19yBwKYBSE6nW-8">
          <mxGeometry width="50" height="50" relative="1" as="geometry">
            <mxPoint x="580" y="760" as="sourcePoint" />
            <mxPoint x="170" y="845" as="targetPoint" />
          </mxGeometry>
        </mxCell>
        <mxCell id="QFlxC7p19yBwKYBSE6nW-22" value="" style="endArrow=classic;html=1;rounded=0;strokeColor=#006658;fontSize=14;fontColor=#5C5C5C;fillColor=#21C0A5;exitX=0.5;exitY=1;exitDx=0;exitDy=0;entryX=1;entryY=0.5;entryDx=0;entryDy=0;" edge="1" parent="1" source="QFlxC7p19yBwKYBSE6nW-9" target="QFlxC7p19yBwKYBSE6nW-1">
          <mxGeometry width="50" height="50" relative="1" as="geometry">
            <mxPoint x="780" y="760" as="sourcePoint" />
            <mxPoint x="570" y="845" as="targetPoint" />
          </mxGeometry>
        </mxCell>
        <mxCell id="QFlxC7p19yBwKYBSE6nW-23" value="1.服务端启动时去注册信息（创建都是临时节点）" style="text;html=1;strokeColor=none;fillColor=none;align=center;verticalAlign=middle;whiteSpace=wrap;rounded=0;fontSize=14;fontColor=#5C5C5C;" vertex="1" parent="1">
          <mxGeometry x="580" y="800" width="190" height="30" as="geometry" />
        </mxCell>
        <mxCell id="QFlxC7p19yBwKYBSE6nW-25" value="3.服务器节点下线" style="text;html=1;strokeColor=none;fillColor=none;align=center;verticalAlign=middle;whiteSpace=wrap;rounded=0;fontSize=14;fontColor=#5C5C5C;" vertex="1" parent="1">
          <mxGeometry x="470" y="750" width="60" height="30" as="geometry" />
        </mxCell>
        <mxCell id="QFlxC7p19yBwKYBSE6nW-26" value="" style="endArrow=classic;html=1;rounded=0;strokeColor=#006658;fontSize=14;fontColor=#5C5C5C;fillColor=#21C0A5;exitX=0.5;exitY=0;exitDx=0;exitDy=0;" edge="1" parent="1" source="QFlxC7p19yBwKYBSE6nW-10">
          <mxGeometry width="50" height="50" relative="1" as="geometry">
            <mxPoint x="330" y="940" as="sourcePoint" />
            <mxPoint x="40" y="920" as="targetPoint" />
          </mxGeometry>
        </mxCell>
        <mxCell id="QFlxC7p19yBwKYBSE6nW-27" value="" style="endArrow=classic;html=1;rounded=0;strokeColor=#006658;fontSize=14;fontColor=#5C5C5C;fillColor=#21C0A5;entryX=0;entryY=0.5;entryDx=0;entryDy=0;" edge="1" parent="1" target="QFlxC7p19yBwKYBSE6nW-10">
          <mxGeometry width="50" height="50" relative="1" as="geometry">
            <mxPoint x="40" y="920" as="sourcePoint" />
            <mxPoint x="-60.000000000000114" y="980" as="targetPoint" />
          </mxGeometry>
        </mxCell>
        <mxCell id="QFlxC7p19yBwKYBSE6nW-28" value="2.获取到当前在线服务器列表，并且注册监听" style="text;html=1;strokeColor=none;fillColor=none;align=center;verticalAlign=middle;whiteSpace=wrap;rounded=0;fontSize=14;fontColor=#5C5C5C;movable=1;resizable=1;rotatable=1;deletable=1;editable=1;connectable=1;" vertex="1" parent="1">
          <mxGeometry x="210" y="930" width="170" height="30" as="geometry" />
        </mxCell>
        <mxCell id="QFlxC7p19yBwKYBSE6nW-29" value="4.服务器节点上下线事件通知" style="text;html=1;strokeColor=none;fillColor=none;align=center;verticalAlign=middle;whiteSpace=wrap;rounded=0;fontSize=14;fontColor=#5C5C5C;" vertex="1" parent="1">
          <mxGeometry x="50" y="990" width="110" height="45" as="geometry" />
        </mxCell>
        <mxCell id="QFlxC7p19yBwKYBSE6nW-30" value="" style="endArrow=none;html=1;rounded=0;strokeColor=#FF3333;fontSize=14;fontColor=#5C5C5C;fillColor=#21C0A5;strokeWidth=3;" edge="1" parent="1">
          <mxGeometry width="50" height="50" relative="1" as="geometry">
            <mxPoint x="700" y="760" as="sourcePoint" />
            <mxPoint x="530" y="620" as="targetPoint" />
          </mxGeometry>
        </mxCell>
        <mxCell id="QFlxC7p19yBwKYBSE6nW-31" value="" style="endArrow=none;html=1;rounded=0;strokeColor=#FF3333;fontSize=14;fontColor=#5C5C5C;fillColor=#21C0A5;strokeWidth=3;" edge="1" parent="1">
          <mxGeometry width="50" height="50" relative="1" as="geometry">
            <mxPoint x="540" y="760" as="sourcePoint" />
            <mxPoint x="710" y="620" as="targetPoint" />
          </mxGeometry>
        </mxCell>
        <mxCell id="QFlxC7p19yBwKYBSE6nW-32" value="&lt;b&gt;&lt;font style=&quot;font-size: 16px;&quot;&gt;ZooKeeper Service&lt;/font&gt;&lt;/b&gt;" style="html=1;strokeColor=#006658;fontSize=14;fontColor=#5C5C5C;fillColor=#D5E8D4;verticalAlign=top;" vertex="1" parent="1">
          <mxGeometry x="140" y="1230" width="510" height="370" as="geometry" />
        </mxCell>
        <mxCell id="QFlxC7p19yBwKYBSE6nW-34" value="/" style="rounded=0;whiteSpace=wrap;html=1;fontSize=14;" vertex="1" parent="1">
          <mxGeometry x="180" y="1280" width="60" height="40" as="geometry" />
        </mxCell>
        <mxCell id="QFlxC7p19yBwKYBSE6nW-35" value="/service" style="rounded=1;whiteSpace=wrap;html=1;fontSize=16;" vertex="1" parent="1">
          <mxGeometry x="260" y="1340" width="90" height="30" as="geometry" />
        </mxCell>
        <mxCell id="QFlxC7p19yBwKYBSE6nW-40" value="" style="endArrow=none;html=1;rounded=0;strokeColor=#7EA6E0;strokeWidth=3;fontSize=16;fontColor=#5C5C5C;fillColor=#21C0A5;exitX=0;exitY=0.5;exitDx=0;exitDy=0;" edge="1" parent="1" source="QFlxC7p19yBwKYBSE6nW-35">
          <mxGeometry width="50" height="50" relative="1" as="geometry">
            <mxPoint x="160" y="1370" as="sourcePoint" />
            <mxPoint x="210" y="1320" as="targetPoint" />
            <Array as="points">
              <mxPoint x="210" y="1355" />
            </Array>
          </mxGeometry>
        </mxCell>
        <mxCell id="QFlxC7p19yBwKYBSE6nW-41" value="www.baidu.com" style="rounded=1;whiteSpace=wrap;html=1;fontSize=16;" vertex="1" parent="1">
          <mxGeometry x="341" y="1390" width="145" height="40" as="geometry" />
        </mxCell>
        <mxCell id="QFlxC7p19yBwKYBSE6nW-42" value="192.168.22.13" style="rounded=0;whiteSpace=wrap;html=1;fontSize=16;" vertex="1" parent="1">
          <mxGeometry x="440" y="1440" width="130" height="40" as="geometry" />
        </mxCell>
        <mxCell id="QFlxC7p19yBwKYBSE6nW-47" value="" style="endArrow=none;html=1;rounded=0;strokeColor=#7EA6E0;strokeWidth=3;fontSize=16;fontColor=#5C5C5C;fillColor=#21C0A5;exitX=0;exitY=0.5;exitDx=0;exitDy=0;entryX=0.5;entryY=1;entryDx=0;entryDy=0;" edge="1" parent="1" source="QFlxC7p19yBwKYBSE6nW-41" target="QFlxC7p19yBwKYBSE6nW-35">
          <mxGeometry width="50" height="50" relative="1" as="geometry">
            <mxPoint x="340" y="1425" as="sourcePoint" />
            <mxPoint x="290" y="1390" as="targetPoint" />
            <Array as="points">
              <mxPoint x="305" y="1410" />
            </Array>
          </mxGeometry>
        </mxCell>
        <mxCell id="QFlxC7p19yBwKYBSE6nW-48" value="192.168.22.14" style="rounded=0;whiteSpace=wrap;html=1;fontSize=16;" vertex="1" parent="1">
          <mxGeometry x="440" y="1490" width="130" height="40" as="geometry" />
        </mxCell>
        <mxCell id="QFlxC7p19yBwKYBSE6nW-49" value="192.168.22.15" style="rounded=0;whiteSpace=wrap;html=1;fontSize=16;" vertex="1" parent="1">
          <mxGeometry x="440" y="1540" width="130" height="40" as="geometry" />
        </mxCell>
        <mxCell id="QFlxC7p19yBwKYBSE6nW-51" value="" style="endArrow=none;html=1;rounded=0;strokeColor=#7EA6E0;strokeWidth=3;fontSize=16;fontColor=#5C5C5C;fillColor=#21C0A5;exitX=0;exitY=0.5;exitDx=0;exitDy=0;entryX=0.5;entryY=1;entryDx=0;entryDy=0;" edge="1" parent="1">
          <mxGeometry width="50" height="50" relative="1" as="geometry">
            <mxPoint x="440" y="1470" as="sourcePoint" />
            <mxPoint x="404" y="1430" as="targetPoint" />
            <Array as="points">
              <mxPoint x="404" y="1470" />
            </Array>
          </mxGeometry>
        </mxCell>
        <mxCell id="QFlxC7p19yBwKYBSE6nW-52" value="" style="endArrow=none;html=1;rounded=0;strokeColor=#7EA6E0;strokeWidth=3;fontSize=16;fontColor=#5C5C5C;fillColor=#21C0A5;exitX=0;exitY=0.5;exitDx=0;exitDy=0;entryX=0.5;entryY=1;entryDx=0;entryDy=0;" edge="1" parent="1">
          <mxGeometry width="50" height="50" relative="1" as="geometry">
            <mxPoint x="440" y="1510" as="sourcePoint" />
            <mxPoint x="404" y="1470" as="targetPoint" />
            <Array as="points">
              <mxPoint x="404" y="1510" />
            </Array>
          </mxGeometry>
        </mxCell>
        <mxCell id="QFlxC7p19yBwKYBSE6nW-53" value="" style="endArrow=none;html=1;rounded=0;strokeColor=#7EA6E0;strokeWidth=3;fontSize=16;fontColor=#5C5C5C;fillColor=#21C0A5;exitX=0;exitY=0.5;exitDx=0;exitDy=0;entryX=0.5;entryY=1;entryDx=0;entryDy=0;" edge="1" parent="1" source="QFlxC7p19yBwKYBSE6nW-49">
          <mxGeometry width="50" height="50" relative="1" as="geometry">
            <mxPoint x="440" y="1550" as="sourcePoint" />
            <mxPoint x="404" y="1510" as="targetPoint" />
            <Array as="points">
              <mxPoint x="404" y="1560" />
            </Array>
          </mxGeometry>
        </mxCell>
        <mxCell id="QFlxC7p19yBwKYBSE6nW-55" value="&lt;b&gt;client1&lt;/b&gt;" style="rounded=0;whiteSpace=wrap;html=1;strokeColor=#9673a6;fontSize=16;fillColor=#e1d5e7;" vertex="1" parent="1">
          <mxGeometry x="20" y="1650" width="110" height="50" as="geometry" />
        </mxCell>
        <mxCell id="QFlxC7p19yBwKYBSE6nW-56" value="&lt;b&gt;client2&lt;/b&gt;" style="rounded=0;whiteSpace=wrap;html=1;strokeColor=#9673a6;fontSize=16;fillColor=#e1d5e7;" vertex="1" parent="1">
          <mxGeometry x="140" y="1650" width="110" height="50" as="geometry" />
        </mxCell>
        <mxCell id="QFlxC7p19yBwKYBSE6nW-58" value="&lt;b&gt;client3&lt;/b&gt;" style="rounded=0;whiteSpace=wrap;html=1;strokeColor=#9673a6;fontSize=16;fillColor=#e1d5e7;" vertex="1" parent="1">
          <mxGeometry x="260" y="1650" width="110" height="50" as="geometry" />
        </mxCell>
        <mxCell id="QFlxC7p19yBwKYBSE6nW-59" value="" style="endArrow=classic;html=1;rounded=0;strokeColor=#7EA6E0;strokeWidth=3;fontSize=16;fontColor=#5C5C5C;fillColor=#21C0A5;entryX=0;entryY=0.5;entryDx=0;entryDy=0;" edge="1" parent="1" target="QFlxC7p19yBwKYBSE6nW-41">
          <mxGeometry width="50" height="50" relative="1" as="geometry">
            <mxPoint x="80" y="1650" as="sourcePoint" />
            <mxPoint x="130" y="1600" as="targetPoint" />
          </mxGeometry>
        </mxCell>
        <mxCell id="QFlxC7p19yBwKYBSE6nW-60" value="" style="endArrow=classic;html=1;rounded=0;strokeColor=#7EA6E0;strokeWidth=3;fontSize=16;fontColor=#5C5C5C;fillColor=#21C0A5;exitX=0.5;exitY=0;exitDx=0;exitDy=0;" edge="1" parent="1" source="QFlxC7p19yBwKYBSE6nW-56">
          <mxGeometry width="50" height="50" relative="1" as="geometry">
            <mxPoint x="90" y="1660" as="sourcePoint" />
            <mxPoint x="340" y="1410" as="targetPoint" />
          </mxGeometry>
        </mxCell>
        <mxCell id="QFlxC7p19yBwKYBSE6nW-61" value="" style="endArrow=classic;html=1;rounded=0;strokeColor=#7EA6E0;strokeWidth=3;fontSize=16;fontColor=#5C5C5C;fillColor=#21C0A5;exitX=0.5;exitY=0;exitDx=0;exitDy=0;" edge="1" parent="1" source="QFlxC7p19yBwKYBSE6nW-58">
          <mxGeometry width="50" height="50" relative="1" as="geometry">
            <mxPoint x="205" y="1660" as="sourcePoint" />
            <mxPoint x="340" y="1410" as="targetPoint" />
          </mxGeometry>
        </mxCell>
        <mxCell id="QFlxC7p19yBwKYBSE6nW-62" value="访问" style="text;html=1;strokeColor=none;fillColor=none;align=center;verticalAlign=middle;whiteSpace=wrap;rounded=0;fontSize=16;fontColor=#5C5C5C;" vertex="1" parent="1">
          <mxGeometry x="60" y="1610" width="60" height="30" as="geometry" />
        </mxCell>
        <mxCell id="QFlxC7p19yBwKYBSE6nW-63" value="访问" style="text;html=1;strokeColor=none;fillColor=none;align=center;verticalAlign=middle;whiteSpace=wrap;rounded=0;fontSize=16;fontColor=#5C5C5C;" vertex="1" parent="1">
          <mxGeometry x="165" y="1610" width="60" height="30" as="geometry" />
        </mxCell>
        <mxCell id="QFlxC7p19yBwKYBSE6nW-64" value="访问" style="text;html=1;strokeColor=none;fillColor=none;align=center;verticalAlign=middle;whiteSpace=wrap;rounded=0;fontSize=16;fontColor=#5C5C5C;" vertex="1" parent="1">
          <mxGeometry x="270" y="1610" width="60" height="30" as="geometry" />
        </mxCell>
      </root>
    </mxGraphModel>
  </diagram>
</mxfile>
